<svg width="140" height="40" viewBox="0 0 140 40" fill="none" xmlns="http://www.w3.org/2000/svg">
<g clip-path="url(#clip0_2309_27930)">
<mask id="mask0_2309_27930" style="mask-type:luminance" maskUnits="userSpaceOnUse" x="0" y="0" width="140" height="40">
<path d="M139.582 0H0V40H139.582V0Z" fill="white"/>
</mask>
<g mask="url(#mask0_2309_27930)">
<path d="M50.082 31.3274V14.4639H53.9502C55.9308 14.4639 57.472 14.9584 58.5765 15.9449C59.681 16.9314 60.2307 18.312 60.2307 20.0842C60.2307 21.7585 59.7111 23.1366 58.6719 24.211C57.6327 25.2853 56.3098 25.825 54.7033 25.825C53.9929 25.825 53.2047 25.6669 52.3387 25.3506V31.3224H50.082V31.3274ZM53.9025 16.5272H52.3387V23.3977C53.0164 23.7466 53.7268 23.9198 54.4698 23.9198C55.504 23.9198 56.35 23.5608 57.0076 22.8404C57.6653 22.12 57.9941 21.1937 57.9941 20.0591C57.9941 19.3311 57.8385 18.686 57.5273 18.1288C57.216 17.5715 56.7918 17.1648 56.2546 16.9088C55.7199 16.6553 54.9367 16.5272 53.9025 16.5272Z" fill="#44AB00"/>
<path d="M63.8014 9.76465C64.1654 9.76465 64.4767 9.89016 64.7352 10.1412C64.9938 10.3922 65.1243 10.6984 65.1243 11.0624C65.1243 11.4189 64.9938 11.7251 64.7352 11.9862C64.4767 12.2447 64.1654 12.3753 63.8014 12.3753C63.4625 12.3753 63.1613 12.2447 62.9028 11.9812C62.6442 11.7176 62.5137 11.4113 62.5137 11.0649C62.5137 10.7261 62.6442 10.4248 62.9028 10.1613C63.1613 9.89769 63.4625 9.76465 63.8014 9.76465ZM62.7095 14.4637H64.9184V25.6341H62.7095V14.4637Z" fill="#44AB00"/>
<path d="M75.8232 14.4639H78.6472L74.051 19.9687L78.976 25.6342H76.142L72.6353 21.628L69.3218 25.6342H66.543L71.2446 19.9738L66.543 14.4639H69.3293L72.6403 18.2969L75.8232 14.4639Z" fill="#44AB00"/>
<path d="M89.3193 20.2425H81.4649C81.5201 21.3119 81.8791 22.1603 82.5393 22.7929C83.1995 23.423 84.0504 23.7392 85.0947 23.7392C86.5506 23.7392 87.896 23.2849 89.126 22.3787V24.54C88.4458 24.9943 87.773 25.3156 87.1053 25.5114C86.4376 25.7047 85.6544 25.8026 84.7558 25.8026C83.5258 25.8026 82.5292 25.5466 81.7686 25.037C81.0081 24.5274 80.3981 23.8422 79.9412 22.9787C79.4844 22.1177 79.2559 21.1186 79.2559 19.9865C79.2559 18.2871 79.7379 16.904 80.7018 15.8396C81.6657 14.7753 82.9158 14.2432 84.4546 14.2432C85.9356 14.2432 87.1179 14.7603 87.999 15.797C88.8825 16.8337 89.3218 18.2218 89.3218 19.9614V20.2425H89.3193ZM81.5126 18.9197H87.1329C87.0777 18.0386 86.8141 17.3583 86.3447 16.8814C85.8753 16.4044 85.2428 16.166 84.452 16.166C83.6588 16.166 83.0087 16.4044 82.5041 16.8814C81.9971 17.3583 81.6682 18.0386 81.5126 18.9197Z" fill="#44AB00"/>
<path d="M91.7598 8.67285H93.9687V25.6343H91.7598V8.67285Z" fill="#44AB00"/>
<path d="M95.5977 16.2363L99.7495 12.1572V14.4641H103.281V16.4547H99.7495V21.9219C99.7495 23.1996 100.279 23.8372 101.341 23.8372C102.134 23.8372 102.973 23.5736 103.854 23.049V25.1124C103.005 25.5893 102.076 25.8278 101.075 25.8278C100.063 25.8278 99.2224 25.5316 98.5497 24.9417C98.3388 24.7634 98.1656 24.5626 98.0275 24.3417C97.8895 24.1208 97.774 23.8271 97.6811 23.4682C97.5882 23.1092 97.5405 22.4214 97.5405 21.4098V16.4547H95.5977V16.2363Z" fill="white"/>
<path d="M106.585 9.76465C106.949 9.76465 107.26 9.89016 107.518 10.1412C107.777 10.3922 107.907 10.6984 107.907 11.0624C107.907 11.4189 107.777 11.7251 107.518 11.9862C107.26 12.2447 106.949 12.3753 106.585 12.3753C106.246 12.3753 105.945 12.2447 105.686 11.9812C105.427 11.7176 105.297 11.4113 105.297 11.0649C105.297 10.7261 105.427 10.4248 105.686 10.1613C105.945 9.89769 106.243 9.76465 106.585 9.76465ZM105.49 14.4637H107.699V25.6341H105.49V14.4637Z" fill="white"/>
<path d="M120.047 17.5236V25.6341H117.825V19.4163C117.825 18.1788 117.66 17.3128 117.328 16.8233C116.997 16.3338 116.417 16.0878 115.591 16.0878C115.129 16.0878 114.708 16.1932 114.324 16.4041C113.94 16.6149 113.5 16.9865 113.006 17.5211V25.6316H110.797V14.4612H113.006V15.9297C114.13 14.8051 115.232 14.2428 116.307 14.2428C117.723 14.2428 118.819 14.9155 119.598 16.2585C120.78 14.898 122.012 14.2202 123.3 14.2202C124.385 14.2202 125.278 14.6168 125.976 15.41C126.674 16.2033 127.025 17.4132 127.025 19.0398V25.6316H124.816V19.0172C124.816 18.0859 124.626 17.373 124.247 16.881C123.865 16.3865 123.32 16.1405 122.607 16.1405C121.694 16.1405 120.84 16.5999 120.047 17.5236Z" fill="white"/>
<path d="M139.581 20.2425H131.727C131.782 21.3119 132.141 22.1603 132.801 22.7929C133.461 23.423 134.312 23.7392 135.356 23.7392C136.812 23.7392 138.155 23.2849 139.388 22.3787V24.54C138.707 24.9943 138.035 25.3156 137.367 25.5114C136.699 25.7047 135.916 25.8026 135.017 25.8026C133.787 25.8026 132.791 25.5466 132.03 25.037C131.27 24.5274 130.66 23.8422 130.203 22.9787C129.746 22.1177 129.518 21.1186 129.518 19.9865C129.518 18.2871 130 16.904 130.963 15.8396C131.927 14.7753 133.177 14.2432 134.714 14.2432C136.195 14.2432 137.377 14.7603 138.258 15.797C139.139 16.8337 139.581 18.2218 139.581 19.9614V20.2425ZM131.774 18.9197H137.395C137.337 18.0386 137.073 17.3583 136.606 16.8814C136.137 16.4044 135.507 16.166 134.714 16.166C133.92 16.166 133.27 16.4044 132.766 16.8814C132.259 17.3583 131.927 18.0386 131.774 18.9197Z" fill="white"/>
<path d="M36.8122 23.8467V36.8118H22.2656V29.5398H27.2283C27.2835 29.5398 27.3412 29.5373 27.3965 29.5373C28.132 29.5273 28.8449 29.4419 29.5377 29.2938C30.853 29.0127 32.0805 28.4905 33.1724 27.7802C33.9807 27.253 34.7162 26.6204 35.3588 25.9025C35.9211 25.2775 36.4081 24.5897 36.8122 23.8467Z" fill="white"/>
<path d="M36.3627 0V12.9652C35.9586 12.2222 35.4716 11.5344 34.9118 10.9093C34.2692 10.1914 33.5337 9.55883 32.7254 9.03169C31.6335 8.3213 30.406 7.79918 29.0907 7.51804C28.3979 7.36994 27.685 7.28459 26.9495 7.27455C26.8943 7.27455 26.8365 7.27204 26.7813 7.27204H3.63477L10.8943 14.5441H26.7813C27.6574 14.5441 28.4606 14.8528 29.0907 15.3699C29.9015 16.0377 30.4186 17.0493 30.4186 18.1814C30.4186 19.3135 29.9015 20.3251 29.0907 20.9928C28.4606 21.5099 27.6574 21.8186 26.7813 21.8186H21.8186V18.1814H14.5441V40L10.9093 36.3627H0V0H36.3627Z" fill="#44AB00"/>
<path d="M40.8748 16.1382H35.2344V21.7786H40.8748V16.1382Z" fill="#44AB00"/>
<path d="M44.2745 23.3047H40.4238V27.1553H44.2745V23.3047Z" fill="#44AB00"/>
<path d="M46.8677 17.4785H43.8203V20.5259H46.8677V17.4785Z" fill="#44AB00"/>
</g>
</g>
<defs>
<clipPath id="clip0_2309_27930">
<rect width="140" height="40" fill="white"/>
</clipPath>
</defs>
</svg>
