<svg width="140" height="40" viewBox="0 0 140 40" fill="none" xmlns="http://www.w3.org/2000/svg">
<g id="Frame" clip-path="url(#clip0_81_1887)">
<g id="Group">
<g id="Group_2">
<path id="Vector" d="M50.083 31.3274V14.4639H53.9512C55.9318 14.4639 57.473 14.9584 58.5775 15.9449C59.682 16.9314 60.2317 18.312 60.2317 20.0842C60.2317 21.7585 59.7121 23.1366 58.6729 24.211C57.6337 25.2853 56.3108 25.825 54.7043 25.825C53.9939 25.825 53.2057 25.6669 52.3397 25.3506V31.3224H50.083V31.3274ZM53.9035 16.5272H52.3397V23.3977C53.0174 23.7466 53.7278 23.9198 54.4708 23.9198C55.505 23.9198 56.351 23.5608 57.0086 22.8404C57.6663 22.12 57.9951 21.1937 57.9951 20.0591C57.9951 19.3311 57.8395 18.686 57.5283 18.1288C57.217 17.5715 56.7928 17.1648 56.2556 16.9088C55.7209 16.6553 54.9377 16.5272 53.9035 16.5272Z" fill="white"/>
<path id="Vector_2" d="M63.8014 9.76465C64.1654 9.76465 64.4767 9.89016 64.7352 10.1412C64.9938 10.3922 65.1243 10.6984 65.1243 11.0624C65.1243 11.4189 64.9938 11.7251 64.7352 11.9862C64.4767 12.2447 64.1654 12.3753 63.8014 12.3753C63.4625 12.3753 63.1613 12.2447 62.9028 11.9812C62.6442 11.7176 62.5137 11.4113 62.5137 11.0649C62.5137 10.7261 62.6442 10.4248 62.9028 10.1613C63.1613 9.89769 63.4625 9.76465 63.8014 9.76465ZM62.7095 14.4637H64.9184V25.6341H62.7095V14.4637Z" fill="white"/>
<path id="Vector_3" d="M75.8251 14.4639H78.6491L74.0529 19.9687L78.9779 25.6342H76.1439L72.6372 21.628L69.3237 25.6342H66.5449L71.2465 19.9738L66.5449 14.4639H69.3312L72.6422 18.2969L75.8251 14.4639Z" fill="white"/>
<path id="Vector_4" d="M89.3202 20.2425H81.4658C81.521 21.3119 81.88 22.1603 82.5402 22.7929C83.2004 23.423 84.0513 23.7392 85.0956 23.7392C86.5515 23.7392 87.8969 23.2849 89.1269 22.3787V24.54C88.4467 24.9943 87.7739 25.3156 87.1062 25.5114C86.4385 25.7047 85.6553 25.8026 84.7567 25.8026C83.5267 25.8026 82.5301 25.5466 81.7695 25.037C81.009 24.5274 80.399 23.8422 79.9421 22.9787C79.4853 22.1177 79.2568 21.1186 79.2568 19.9865C79.2568 18.2871 79.7388 16.904 80.7027 15.8396C81.6666 14.7753 82.9167 14.2432 84.4555 14.2432C85.9365 14.2432 87.1188 14.7603 87.9999 15.797C88.8834 16.8337 89.3227 18.2218 89.3227 19.9614V20.2425H89.3202ZM81.5135 18.9197H87.1338C87.0786 18.0386 86.815 17.3583 86.3456 16.8814C85.8762 16.4044 85.2437 16.166 84.4529 16.166C83.6597 16.166 83.0096 16.4044 82.505 16.8814C81.998 17.3583 81.6691 18.0386 81.5135 18.9197Z" fill="white"/>
<path id="Vector_5" d="M91.7598 8.67285H93.9687V25.6343H91.7598V8.67285Z" fill="white"/>
<path id="Vector_6" d="M95.5977 16.2363L99.7495 12.1572V14.4641H103.281V16.4547H99.7495V21.9219C99.7495 23.1996 100.279 23.8372 101.341 23.8372C102.134 23.8372 102.973 23.5736 103.854 23.049V25.1124C103.005 25.5893 102.076 25.8278 101.075 25.8278C100.063 25.8278 99.2224 25.5316 98.5497 24.9417C98.3388 24.7634 98.1656 24.5626 98.0275 24.3417C97.8895 24.1208 97.774 23.8271 97.6811 23.4682C97.5882 23.1092 97.5405 22.4214 97.5405 21.4098V16.4547H95.5977V16.2363Z" fill="white"/>
<path id="Vector_7" d="M106.585 9.76465C106.949 9.76465 107.26 9.89016 107.518 10.1412C107.777 10.3922 107.907 10.6984 107.907 11.0624C107.907 11.4189 107.777 11.7251 107.518 11.9862C107.26 12.2447 106.949 12.3753 106.585 12.3753C106.246 12.3753 105.945 12.2447 105.686 11.9812C105.427 11.7176 105.297 11.4113 105.297 11.0649C105.297 10.7261 105.427 10.4248 105.686 10.1613C105.945 9.89769 106.243 9.76465 106.585 9.76465ZM105.49 14.4637H107.699V25.6341H105.49V14.4637Z" fill="white"/>
<path id="Vector_8" d="M120.047 17.5236V25.6341H117.825V19.4163C117.825 18.1788 117.66 17.3128 117.328 16.8233C116.997 16.3338 116.417 16.0878 115.591 16.0878C115.129 16.0878 114.708 16.1932 114.324 16.4041C113.94 16.6149 113.5 16.9865 113.006 17.5211V25.6316H110.797V14.4612H113.006V15.9297C114.13 14.8051 115.232 14.2428 116.307 14.2428C117.723 14.2428 118.819 14.9155 119.598 16.2585C120.78 14.898 122.012 14.2202 123.3 14.2202C124.385 14.2202 125.278 14.6168 125.976 15.41C126.674 16.2033 127.025 17.4132 127.025 19.0398V25.6316H124.816V19.0172C124.816 18.0859 124.626 17.373 124.247 16.881C123.865 16.3865 123.32 16.1405 122.607 16.1405C121.694 16.1405 120.84 16.5999 120.047 17.5236Z" fill="white"/>
<path id="Vector_9" d="M139.582 20.2425H131.728C131.783 21.3119 132.142 22.1603 132.802 22.7929C133.462 23.423 134.313 23.7392 135.357 23.7392C136.813 23.7392 138.156 23.2849 139.389 22.3787V24.54C138.708 24.9943 138.036 25.3156 137.368 25.5114C136.7 25.7047 135.917 25.8026 135.018 25.8026C133.788 25.8026 132.792 25.5466 132.031 25.037C131.271 24.5274 130.661 23.8422 130.204 22.9787C129.747 22.1177 129.519 21.1186 129.519 19.9865C129.519 18.2871 130.001 16.904 130.964 15.8396C131.928 14.7753 133.178 14.2432 134.715 14.2432C136.196 14.2432 137.378 14.7603 138.259 15.797C139.14 16.8337 139.582 18.2218 139.582 19.9614V20.2425ZM131.775 18.9197H137.396C137.338 18.0386 137.074 17.3583 136.607 16.8814C136.138 16.4044 135.508 16.166 134.715 16.166C133.921 16.166 133.271 16.4044 132.767 16.8814C132.26 17.3583 131.928 18.0386 131.775 18.9197Z" fill="white"/>
</g>
<g id="Group_3">
<path id="Vector_10" d="M36.8122 23.8467V36.8118H22.2656V29.5398H27.2283C27.2835 29.5398 27.3412 29.5373 27.3965 29.5373C28.132 29.5273 28.8449 29.4419 29.5377 29.2938C30.853 29.0127 32.0805 28.4905 33.1724 27.7802C33.9807 27.253 34.7162 26.6204 35.3588 25.9025C35.9211 25.2775 36.4081 24.5897 36.8122 23.8467Z" fill="white"/>
<path id="Vector_11" d="M36.3627 0V12.9652C35.9586 12.2222 35.4716 11.5344 34.9118 10.9093C34.2692 10.1914 33.5337 9.55883 32.7254 9.03169C31.6335 8.3213 30.406 7.79918 29.0907 7.51804C28.3979 7.36994 27.685 7.28459 26.9495 7.27455C26.8943 7.27455 26.8365 7.27204 26.7813 7.27204H3.63477L10.8943 14.5441H26.7813C27.6574 14.5441 28.4606 14.8528 29.0907 15.3699C29.9015 16.0377 30.4186 17.0493 30.4186 18.1814C30.4186 19.3135 29.9015 20.3251 29.0907 20.9928C28.4606 21.5099 27.6574 21.8186 26.7813 21.8186H21.8186V18.1814H14.5441V40L10.9093 36.3627H0V0H36.3627Z" fill="white"/>
<path id="Vector_12" d="M40.8738 16.1382H35.2334V21.7786H40.8738V16.1382Z" fill="white"/>
<path id="Vector_13" d="M44.2745 23.3047H40.4238V27.1553H44.2745V23.3047Z" fill="white"/>
<path id="Vector_14" d="M46.8677 17.4785H43.8203V20.5259H46.8677V17.4785Z" fill="white"/>
</g>
</g>
</g>
<defs>
<clipPath id="clip0_81_1887">
<rect width="139.582" height="40" fill="white"/>
</clipPath>
</defs>
</svg>
