<svg width="140" height="40" viewBox="0 0 140 40" fill="none" xmlns="http://www.w3.org/2000/svg">
<g clip-path="url(#clip0_77_517)">
<path d="M50.335 31.3274V14.4639H54.2032C56.1837 14.4639 57.725 14.9584 58.8295 15.9449C59.934 16.9314 60.4837 18.312 60.4837 20.0842C60.4837 21.7585 59.9641 23.1366 58.9249 24.211C57.8856 25.2853 56.5628 25.825 54.9562 25.825C54.2458 25.825 53.4576 25.6669 52.5916 25.3506V31.3224H50.335V31.3274ZM54.1555 16.5272H52.5916V23.3977C53.2694 23.7466 53.9798 23.9198 54.7228 23.9198C55.757 23.9198 56.6029 23.5608 57.2606 22.8404C57.9183 22.12 58.2471 21.1937 58.2471 20.0591C58.2471 19.3311 58.0915 18.686 57.7802 18.1288C57.4689 17.5715 57.0447 17.1648 56.5075 16.9088C55.9729 16.6553 55.1897 16.5272 54.1555 16.5272Z" fill="#44AB00"/>
<path d="M64.0534 9.76465C64.4173 9.76465 64.7286 9.89016 64.9872 10.1412C65.2457 10.3922 65.3762 10.6984 65.3762 11.0624C65.3762 11.4189 65.2457 11.7251 64.9872 11.9862C64.7286 12.2447 64.4173 12.3753 64.0534 12.3753C63.7145 12.3753 63.4133 12.2447 63.1547 11.9812C62.8962 11.7176 62.7656 11.4113 62.7656 11.0649C62.7656 10.7261 62.8962 10.4248 63.1547 10.1613C63.4133 9.89769 63.7145 9.76465 64.0534 9.76465ZM62.9614 14.4637H65.1704V25.6341H62.9614V14.4637Z" fill="#44AB00"/>
<path d="M76.0771 14.4639H78.901L74.3049 19.9687L79.2299 25.6342H76.3959L72.8891 21.628L69.5757 25.6342H66.7969L71.4985 19.9738L66.7969 14.4639H69.5832L72.8941 18.2969L76.0771 14.4639Z" fill="#44AB00"/>
<path d="M89.5722 20.2425H81.7178C81.773 21.3119 82.1319 22.1603 82.7921 22.7929C83.4523 23.423 84.3033 23.7392 85.3475 23.7392C86.8034 23.7392 88.1489 23.2849 89.3789 22.3787V24.54C88.6986 24.9943 88.0259 25.3156 87.3582 25.5114C86.6905 25.7047 85.9073 25.8026 85.0086 25.8026C83.7786 25.8026 82.7821 25.5466 82.0215 25.037C81.2609 24.5274 80.6509 23.8422 80.1941 22.9787C79.7372 22.1177 79.5088 21.1186 79.5088 19.9865C79.5088 18.2871 79.9907 16.904 80.9547 15.8396C81.9186 14.7753 83.1687 14.2432 84.7074 14.2432C86.1884 14.2432 87.3707 14.7603 88.2518 15.797C89.1354 16.8337 89.5747 18.2218 89.5747 19.9614V20.2425H89.5722ZM81.7655 18.9197H87.3858C87.3306 18.0386 87.067 17.3583 86.5976 16.8814C86.1282 16.4044 85.4956 16.166 84.7049 16.166C83.9117 16.166 83.2615 16.4044 82.757 16.8814C82.2499 17.3583 81.9211 18.0386 81.7655 18.9197Z" fill="#44AB00"/>
<path d="M92.0117 8.67285H94.2207V25.6343H92.0117V8.67285Z" fill="#44AB00"/>
<path d="M95.8496 16.2363L100.001 12.1572V14.4641H103.533V16.4547H100.001V21.9219C100.001 23.1996 100.531 23.8372 101.593 23.8372C102.386 23.8372 103.225 23.5736 104.106 23.049V25.1124C103.257 25.5893 102.328 25.8278 101.327 25.8278C100.315 25.8278 99.4743 25.5316 98.8016 24.9417C98.5907 24.7634 98.4175 24.5626 98.2795 24.3417C98.1414 24.1208 98.026 23.8271 97.9331 23.4682C97.8402 23.1092 97.7925 22.4214 97.7925 21.4098V16.4547H95.8496V16.2363Z" fill="#1B1F2B"/>
<path d="M106.837 9.76465C107.201 9.76465 107.512 9.89016 107.77 10.1412C108.029 10.3922 108.159 10.6984 108.159 11.0624C108.159 11.4189 108.029 11.7251 107.77 11.9862C107.512 12.2447 107.201 12.3753 106.837 12.3753C106.498 12.3753 106.196 12.2447 105.938 11.9812C105.679 11.7176 105.549 11.4113 105.549 11.0649C105.549 10.7261 105.679 10.4248 105.938 10.1613C106.196 9.89769 106.495 9.76465 106.837 9.76465ZM105.742 14.4637H107.951V25.6341H105.742V14.4637Z" fill="#1B1F2B"/>
<path d="M120.299 17.5236V25.6341H118.077V19.4163C118.077 18.1788 117.912 17.3128 117.58 16.8233C117.249 16.3338 116.669 16.0878 115.843 16.0878C115.381 16.0878 114.96 16.1932 114.576 16.4041C114.192 16.6149 113.752 16.9865 113.258 17.5211V25.6316H111.049V14.4612H113.258V15.9297C114.382 14.8051 115.484 14.2428 116.559 14.2428C117.974 14.2428 119.071 14.9155 119.85 16.2585C121.032 14.898 122.264 14.2202 123.552 14.2202C124.637 14.2202 125.53 14.6168 126.228 15.41C126.926 16.2033 127.277 17.4132 127.277 19.0398V25.6316H125.068V19.0172C125.068 18.0859 124.878 17.373 124.498 16.881C124.117 16.3865 123.572 16.1405 122.859 16.1405C121.946 16.1405 121.092 16.5999 120.299 17.5236Z" fill="#1B1F2B"/>
<path d="M139.834 20.2425H131.979C132.035 21.3119 132.394 22.1603 133.054 22.7929C133.714 23.423 134.565 23.7392 135.609 23.7392C137.065 23.7392 138.408 23.2849 139.641 22.3787V24.54C138.96 24.9943 138.288 25.3156 137.62 25.5114C136.952 25.7047 136.169 25.8026 135.27 25.8026C134.04 25.8026 133.044 25.5466 132.283 25.037C131.523 24.5274 130.913 23.8422 130.456 22.9787C129.999 22.1177 129.771 21.1186 129.771 19.9865C129.771 18.2871 130.252 16.904 131.216 15.8396C132.18 14.7753 133.43 14.2432 134.967 14.2432C136.448 14.2432 137.63 14.7603 138.511 15.797C139.392 16.8337 139.834 18.2218 139.834 19.9614V20.2425ZM132.027 18.9197H137.648C137.59 18.0386 137.326 17.3583 136.859 16.8814C136.39 16.4044 135.76 16.166 134.967 16.166C134.173 16.166 133.523 16.4044 133.019 16.8814C132.512 17.3583 132.18 18.0386 132.027 18.9197Z" fill="#1B1F2B"/>
<path d="M37.0642 23.8467V36.8118H22.5176V29.5398H27.4802C27.5355 29.5398 27.5932 29.5373 27.6484 29.5373C28.3839 29.5273 29.0968 29.4419 29.7896 29.2938C31.105 29.0127 32.3325 28.4905 33.4244 27.7802C34.2327 27.253 34.9682 26.6204 35.6108 25.9025C36.1731 25.2775 36.66 24.5897 37.0642 23.8467Z" fill="#1B1F2B"/>
<path d="M36.6147 0V12.9652C36.2105 12.2222 35.7236 11.5344 35.1638 10.9093C34.5212 10.1914 33.7857 9.55883 32.9774 9.03169C31.8855 8.3213 30.658 7.79918 29.3426 7.51804C28.6498 7.36994 27.9369 7.28459 27.2014 7.27455C27.1462 7.27455 27.0885 7.27204 27.0333 7.27204H3.88672L11.1462 14.5441H27.0333C27.9093 14.5441 28.7126 14.8528 29.3426 15.3699C30.1534 16.0377 30.6705 17.0493 30.6705 18.1814C30.6705 19.3135 30.1534 20.3251 29.3426 20.9928C28.7126 21.5099 27.9093 21.8186 27.0333 21.8186H22.0706V18.1814H14.796V40L11.1613 36.3627H0.251953V0H36.6147Z" fill="#44AB00"/>
<path d="M41.1258 16.1382H35.4854V21.7786H41.1258V16.1382Z" fill="#1B1F2B"/>
<path d="M44.5264 23.3047H40.6758V27.1553H44.5264V23.3047Z" fill="#1B1F2B"/>
<path d="M47.1196 17.4785H44.0723V20.5259H47.1196V17.4785Z" fill="#44AB00"/>
</g>
<defs>
<clipPath id="clip0_77_517">
<rect width="139.582" height="40" fill="white" transform="translate(0.251953)"/>
</clipPath>
</defs>
</svg>
